<svg width="114" height="78" viewBox="0 0 114 78" fill="none" xmlns="http://www.w3.org/2000/svg">
<path d="M67.2724 44.3374C74.8703 44.3323 81.475 44.6407 88.9295 43.2478C97.5258 41.639 106.143 37.3163 110.413 29.6527C111.36 27.9565 112.082 26.0753 112.061 24.1324C112.041 22.1895 111.17 20.1798 109.517 19.1672C107.382 17.8617 104.612 18.4939 102.323 19.4859C99.3178 20.7863 96.5735 22.6418 94.0341 24.7183C81.562 34.9211 74.2354 50.1044 63.1611 61.8234C58.3075 66.9582 52.4452 71.5533 45.5282 72.9205C43.4905 73.3214 41.0176 73.2752 39.7735 71.6098C38.4628 69.852 39.282 67.2872 40.6029 65.5396C42.6969 62.7846 45.9634 60.9548 49.3989 60.6207C51.841 60.3842 54.2986 60.8674 56.6537 61.5407C61.364 62.8925 65.8184 65.0205 70.0935 67.4259C73.9129 69.5744 77.6248 71.9593 81.6388 73.7069C85.6528 75.4545 90.0764 76.5596 94.4181 75.9788C98.7597 75.398 102.999 72.9205 104.929 68.9731C105.707 67.3797 106.097 65.5242 105.646 63.8023C104.909 60.9599 102.088 59.1147 99.2512 58.3745C96.6657 57.7012 93.9112 57.8914 91.3308 58.9502" stroke="#697687" stroke-width="3.41326" stroke-miterlimit="10" stroke-linecap="round"/>
<path d="M60.4989 53.5895C59.3059 55.4502 57.0429 56.6221 54.8567 56.3291C52.6706 56.0361 50.7301 54.196 50.4895 51.9961C50.213 49.4519 52.1022 47.0875 54.3704 45.9156C56.3671 44.8825 58.3024 44.5741 59.8589 44.4302" stroke="#697687" stroke-width="3.41326" stroke-miterlimit="10" stroke-linecap="round"/>
<path d="M54.0477 52.5359C59.0294 49.7038 63.7039 45.8232 65.6955 40.4622C66.6376 37.9231 66.6734 34.5462 64.4258 33.0453C62.5365 31.7861 59.7513 32.6187 58.4457 34.4794C57.1402 36.34 56.7562 38.0979 56.4285 40.5085" stroke="#697687" stroke-width="3.41326" stroke-miterlimit="10" stroke-linecap="round"/>
<path d="M10.7337 20.9968C8.14301 21.2024 5.41923 20.2207 3.77574 18.2007C2.13226 16.1807 1.75851 13.1173 3.11016 10.8918C4.20581 9.08765 6.22305 8.02369 8.27101 7.53025C11.8242 6.67189 15.5566 7.29896 19.1098 8.15732C31.1876 11.0717 42.6613 16.6279 55.0105 17.99C58.4357 18.3703 61.9582 18.4115 65.2605 17.4297C68.5628 16.448 71.645 14.3406 73.2168 11.2618C74.1998 9.33437 74.5224 6.91346 73.4472 5.03739C72.0597 2.61135 68.9212 1.87634 66.136 1.8455C60.883 1.78382 55.7375 3.35664 50.9197 5.45373C39.789 10.2904 29.6619 18.3292 24.3526 29.2773C22.6528 32.7775 21.4547 36.5811 21.3574 40.4771C21.2602 44.3732 22.32 48.3669 24.7468 51.4098C27.9979 55.496 33.4097 57.4543 38.6166 57.3772C42.1544 57.3258 45.6155 56.3852 48.2625 55.388" stroke="#697687" stroke-width="3.41326" stroke-miterlimit="10" stroke-linecap="round"/>
</svg>
