<svg width="181" height="180" viewBox="0 0 181 180" fill="none" xmlns="http://www.w3.org/2000/svg">
<path d="M7.22242 84.2075C9.39837 84.9785 10.6527 86.8289 10.6527 88.9774C10.6527 91.7581 8.42559 93.9425 5.67109 93.9425C2.76299 93.9425 0.5 91.8249 0.5 88.9979C0.5 86.798 1.87725 84.7832 3.96617 84.2075V86.2172C2.83467 86.7569 2.15372 87.6307 2.15372 88.9414C2.15372 90.8483 3.59753 92.123 5.56357 92.123C7.47841 92.123 8.9939 90.8123 8.9939 88.9774C8.9939 87.7386 8.33343 86.7415 7.2173 86.2326V84.2075H7.22242Z" fill="#697687"/>
<path d="M11.8713 73.6964L10.3917 73.4599V73.4959C11.4157 74.3491 11.8048 75.6547 11.5897 77.0168C11.1443 79.8129 8.68676 81.7506 5.93226 81.3137C2.89105 80.8254 1.10932 78.2915 1.55475 75.4799C1.78003 74.0819 2.48145 72.9922 3.67951 72.4217V72.3857L2.34322 72.1698L2.62993 70.376L12.1529 71.9077L11.8662 73.7015L11.8713 73.6964ZM7.13544 72.8997C5.27692 72.6016 3.51567 73.7015 3.20336 75.6855C2.91665 77.4793 4.21198 79.1909 6.08586 79.4942C7.8727 79.782 9.66978 78.5639 9.9565 76.77C10.2534 74.9042 8.93764 73.1927 7.13544 72.8997Z" fill="#697687"/>
<path d="M13.1309 68.5665L0.735596 65.0508L1.22711 63.3032L13.6224 66.8241L13.1309 68.5716V68.5665Z" fill="#697687"/>
<path d="M15.5271 61.1392L5.14905 61.2214L5.84535 59.4122L13.1873 59.5561L13.2026 59.5253L7.66803 54.7092L8.36946 52.8999L15.9879 59.957L15.5271 61.1443V61.1392Z" fill="#697687"/>
<path d="M8.94282 49.3022L7.04846 48.3359L7.86764 46.7168L9.762 47.6831L8.94282 49.3022ZM18.5375 54.1902L9.93608 49.811L10.7553 48.192L19.3567 52.5712L18.5375 54.1902Z" fill="#697687"/>
<path d="M24.5787 43.8591L20.1756 40.9756C18.4707 39.8602 17.2317 40.0093 16.3562 41.3508C15.4909 42.682 15.9466 44.1263 17.4621 45.1235L21.8806 48.0173L20.8924 49.5387L12.8132 44.2497L13.7348 42.8311L14.595 43.3965L14.6154 43.3656C14.2314 42.2605 14.467 41.2274 15.0762 40.2868C16.3408 38.3388 18.4963 37.7066 20.7286 39.1663L25.572 42.3376L24.5839 43.8591H24.5787Z" fill="#697687"/>
<path d="M35.4174 28.6036C35.7297 30.4437 35.3201 31.8161 34.2449 32.8338C32.6629 34.3295 30.236 34.3192 28.741 32.7259C27.6556 31.5694 27.3484 29.9657 28.0243 28.3415C26.6726 28.3004 25.9814 27.9714 25.3721 27.3187C24.1434 26.008 24.0922 23.9931 25.4848 22.6722C26.8057 21.4283 28.8178 21.5363 30.062 22.8624C31.004 23.8698 31.173 25.1445 30.6149 26.6145L33.0008 26.6608L32.0843 23.6179L33.5691 22.2147L34.9463 26.7687L38.648 26.9177L38.6071 28.7116L35.4225 28.6036H35.4174ZM28.654 24.1216C28.0959 23.5254 27.2102 23.4226 26.6521 23.952C26.0838 24.4917 26.1197 25.3706 26.7392 26.0337C27.1539 26.4809 27.7785 26.6351 28.7922 26.6145C29.2633 25.3038 29.1813 24.687 28.6591 24.1268L28.654 24.1216ZM29.7957 28.4237C29.2479 29.4466 29.2735 30.5465 30.0978 31.4255C30.9477 32.3301 32.1867 32.402 33.0622 31.5745C33.7841 30.8909 34.0094 29.9349 33.6101 28.5111L29.7957 28.4186V28.4237Z" fill="#697687"/>
<path d="M46.4714 22.7701L39.6364 11.8066L41.1723 10.8403L48.0074 21.8038L46.4714 22.7701Z" fill="#697687"/>
<path d="M57.0849 16.9874L56.6292 16.0417L56.5985 16.0571C56.5319 17.0029 55.7486 17.9075 54.6069 18.4626C52.7432 19.3672 50.5007 19.213 49.0211 16.1445L46.6761 11.2821L48.3043 10.4906L50.5877 15.2244C51.4684 17.0491 52.564 17.6042 54.0539 16.8795C55.5592 16.1496 55.8203 14.7207 55.0062 13.04L52.7381 8.33696L54.3662 7.54541L58.5645 16.2627L57.0746 16.9874H57.0849Z" fill="#697687"/>
<path d="M69.4498 9.25676C69.3627 11.5697 67.9753 13.3224 65.9324 13.9598C63.2906 14.7873 60.5514 13.2967 59.7322 10.66C58.867 7.87412 60.2084 5.078 62.9014 4.23506C64.9955 3.58229 67.3148 4.30188 68.4872 6.13169L66.5775 6.72792C65.7276 5.80273 64.6934 5.4121 63.4493 5.80273C61.6368 6.36812 60.8535 8.13112 61.4372 10.0175C62.0055 11.8524 63.7053 12.9164 65.446 12.3716C66.6236 12.0015 67.3762 11.0712 67.5298 9.85299L69.4549 9.25162L69.4498 9.25676Z" fill="#697687"/>
<path d="M74.6363 14.8032L75.4862 11.1949L70.182 2.44165L72.1071 2.12811L76.1006 9.0927L77.7748 1.20807L79.6999 0.894531L76.4948 14.4999L74.6363 14.798V14.8032Z" fill="#697687"/>
<path d="M91.6953 3.63907C91.7874 2.17419 93.0674 1.01257 94.5419 1.11023C96.0011 1.20275 97.0865 2.53399 96.9944 3.98344C96.8971 5.4843 95.6069 6.60994 94.1836 6.51743C92.709 6.41977 91.6031 5.10909 91.7004 3.64421L91.6953 3.63907Z" fill="#697687"/>
<path d="M106.128 14.068C106.835 14.181 107.362 14.0988 107.731 12.6596L110.168 3.15077L111.919 3.60308L109.359 13.5899C108.842 15.6202 106.799 16.2113 105.652 15.9183L106.123 14.0731L106.128 14.068ZM110.444 2.06625L110.972 0L112.723 0.452313L112.195 2.51856L110.444 2.06625Z" fill="#697687"/>
<path d="M119.194 16.2626L119.563 15.2809L119.532 15.2706C118.805 15.872 117.612 15.9234 116.424 15.4762C114.489 14.7412 113.056 13.0039 114.259 9.81719L116.158 4.76465L117.853 5.40714L115.999 10.326C115.288 12.2227 115.641 13.4049 117.187 13.9908C118.749 14.5819 119.962 13.7903 120.618 12.0428L122.456 7.15471L124.15 7.7972L120.741 16.8537L119.194 16.2678V16.2626Z" fill="#697687"/>
<path d="M129.598 21.5514L132.168 16.946C133.166 15.1625 132.936 13.9289 131.538 13.1425C130.156 12.3664 128.748 12.9163 127.867 14.4994L125.287 19.1202L123.71 18.231L128.425 9.78613L129.9 10.6137L129.398 11.5131L129.429 11.5286C130.504 11.0711 131.548 11.2356 132.521 11.7856C134.543 12.9215 135.317 15.0391 134.011 17.3727L131.185 22.4355L129.603 21.5463L129.598 21.5514Z" fill="#697687"/>
<path d="M137.421 21.8603C136.766 23.3868 137.135 24.9853 138.302 25.9002C139.193 26.5993 140.396 26.7895 141.466 26.3166L142.894 27.4371C141.082 28.5473 138.865 28.4445 137.232 27.1647C135.092 25.4891 134.841 22.2303 136.428 20.1949C138.302 17.7843 141.42 17.5222 143.437 19.1053C145.674 20.858 146.023 23.9265 144.323 26.1161C144.139 26.3526 143.97 26.5684 143.724 26.7997L137.426 21.8654L137.421 21.8603ZM143.191 24.6101C144.087 23.2275 143.678 21.3977 142.459 20.4416C141.292 19.5267 139.408 19.537 138.281 20.7603L143.191 24.6101Z" fill="#697687"/>
<path d="M155.587 40.1426C153.395 41.9262 150.902 40.9188 149.74 39.4796C148.521 37.9736 148.224 35.3574 150.467 33.5276L154.184 30.5001C156.308 28.7731 158.827 29.3951 160.179 31.0655C161.659 32.8953 161.305 35.4807 159.534 36.925L155.587 40.1375V40.1426ZM158.392 35.5167C159.391 34.6995 159.892 33.3477 158.873 32.0884C157.921 30.9062 156.488 30.9679 155.423 31.8365L151.68 34.8845C150.533 35.82 150.052 37.2232 151.05 38.4619C151.777 39.3562 153.236 39.7212 154.383 38.7857L158.397 35.5167H158.392Z" fill="#697687"/>
<path d="M154.844 46.0537L159.877 46.1925C159.565 45.8122 159.529 45.7505 159.421 45.5706C158.192 43.5403 158.966 40.9806 160.988 39.7471C163.189 38.4055 165.949 39.0326 167.224 41.1348C168.699 43.5712 167.511 46.2182 165.796 47.2616C164.946 47.7808 163.983 48.0378 162.457 48.0069L155.95 47.8887L154.839 46.0537H154.844ZM164.71 45.8019C166.046 44.9846 166.625 43.345 165.811 42.0035C165.053 40.7493 163.338 40.4461 162.073 41.2171C160.778 42.0086 160.205 43.6842 160.973 44.9538C161.72 46.1925 163.456 46.5677 164.705 45.807L164.71 45.8019Z" fill="#697687"/>
<path d="M161.904 59.505L163.338 59.0064L169.973 62.1778C171.32 62.8202 172.052 62.6044 172.467 62.4605C173.716 62.0287 174.489 60.7951 174.064 59.5564C173.614 58.2509 172.282 57.7523 170.7 58.3023L170.47 58.3845L169.876 56.6678L170.091 56.5958C172.84 55.6398 174.95 57.0738 175.61 58.9859C176.363 61.1652 175.175 63.4473 173.004 64.1977C171.801 64.6141 170.823 64.5473 168.975 63.6735L164.336 61.4941L166.098 66.6135L164.536 67.1532L161.904 59.505Z" fill="#697687"/>
<path d="M170.66 77.0576C167.895 77.6127 166.154 75.5567 165.791 73.7372C165.412 71.8354 166.364 69.3837 169.195 68.8131L173.89 67.8725C176.568 67.338 178.513 69.065 178.928 71.1724C179.389 73.4853 177.873 75.6081 175.641 76.0553L170.66 77.0576ZM175.288 74.2769C176.553 74.025 177.617 73.0587 177.305 71.4705C177.008 69.9799 175.713 69.3682 174.366 69.6355L169.641 70.5813C168.192 70.8743 167.117 71.8868 167.424 73.4493C167.649 74.5801 168.77 75.5824 170.219 75.2946L175.288 74.2769Z" fill="#697687"/>
<path d="M167.152 80.1673L168.663 80.0748L174.202 84.9166C175.324 85.8983 176.092 85.888 176.527 85.8572C177.848 85.7749 178.923 84.7983 178.841 83.4928C178.759 82.1153 177.607 81.2775 175.938 81.3752L175.697 81.3906L175.59 79.5762L175.815 79.5608C178.718 79.386 180.367 81.3289 180.49 83.354C180.628 85.6567 178.877 87.5328 176.583 87.6716C175.313 87.7487 174.387 87.4197 172.84 86.0782L168.96 82.727L169.287 88.1342L167.639 88.237L167.152 80.1621V80.1673Z" fill="#697687"/>
<path d="M167.234 96.2196L169.246 96.3737L169.687 90.4834L171.438 90.617L180.075 97.191L179.937 99.0054L170.757 98.3115L170.654 99.6684L169.006 99.5451L169.108 98.1881L167.096 98.0339L167.229 96.2196H167.234ZM177.075 96.9648V96.9289L171.182 92.6987L170.895 96.4971L177.075 96.9648Z" fill="#697687"/>
<path d="M171.187 111.408C172.585 111.834 173.419 113.351 172.989 114.769C172.564 116.172 171.023 116.928 169.641 116.507C168.207 116.07 167.414 114.548 167.828 113.176C168.259 111.752 169.789 110.981 171.187 111.408Z" fill="#697687"/>
<path d="M163.446 131.587C164.096 131.844 164.706 131.721 165.064 131.063C165.397 130.451 165.197 129.839 164.706 129.572C163.989 129.176 163.374 129.798 162.652 130.497C161.634 131.494 160.313 132.199 158.741 131.335C157.108 130.436 156.693 128.652 157.594 126.997C158.429 125.465 160.272 124.566 162.227 125.64L161.357 127.233C160.292 126.745 159.488 126.982 159.028 127.825C158.628 128.56 158.833 129.31 159.519 129.69C160.098 130.009 160.722 129.778 161.588 128.955C163.379 127.233 164.475 127.372 165.438 127.902C166.933 128.724 167.23 130.544 166.472 131.937C165.704 133.345 164.096 133.956 162.576 133.18L163.446 131.587Z" fill="#697687"/>
<path d="M157.42 135.637C155.879 135.026 154.302 135.447 153.426 136.645C152.756 137.56 152.607 138.773 153.109 139.831L152.039 141.296C150.882 139.513 150.907 137.282 152.131 135.606C153.733 133.407 156.969 133.052 159.048 134.578C161.505 136.383 161.864 139.508 160.353 141.579C158.679 143.877 155.633 144.329 153.401 142.684C153.16 142.509 152.935 142.345 152.699 142.103L157.42 135.632V135.637ZM154.865 141.512C156.268 142.371 158.075 141.903 158.992 140.644C159.867 139.446 159.801 137.554 158.546 136.465L154.865 141.512Z" fill="#697687"/>
<path d="M141.988 147.413L143.038 148.482L143.063 148.456C142.741 147.156 143.191 145.876 144.169 144.905C146.176 142.915 149.305 142.813 151.26 144.802C153.426 147.002 153.37 150.106 151.347 152.106C150.344 153.103 149.136 153.56 147.83 153.308L147.804 153.334L148.757 154.306L147.467 155.58L140.693 148.688L141.983 147.413H141.988ZM145.337 150.872C146.658 152.214 148.726 152.378 150.149 150.965C151.44 149.69 151.404 147.536 150.067 146.179C148.798 144.884 146.632 144.797 145.342 146.077C144.005 147.403 144.052 149.567 145.337 150.872Z" fill="#697687"/>
<path d="M132.783 154.583L137.14 161.306L138.235 160.592L139.136 161.984L138.041 162.699L139.807 165.423L138.292 166.415L136.525 163.691L135.199 164.56L134.298 163.167L135.624 162.298L131.267 155.575L132.783 154.583Z" fill="#697687"/>
<path d="M123.792 159.523C126.224 158.315 129.419 159.322 130.622 161.764C131.928 164.411 130.816 167.397 128.159 168.718C125.773 169.9 122.599 169.14 121.273 166.364C120.162 164.03 121.027 160.895 123.787 159.523H123.792ZM127.509 167.192C129.132 166.385 129.859 164.313 129.025 162.617C128.216 160.972 126.147 160.206 124.509 161.018C122.809 161.861 122.082 163.897 122.947 165.655C123.782 167.346 125.809 168.034 127.509 167.192Z" fill="#697687"/>
<path d="M108.55 172.825C108.806 173.483 109.308 173.842 110.035 173.657C110.711 173.488 111.018 172.922 110.88 172.383C110.68 171.586 109.81 171.55 108.811 171.499C107.393 171.421 105.975 170.933 105.54 169.186C105.084 167.371 106.103 165.855 107.931 165.392C109.62 164.966 111.53 165.711 112.073 167.88L110.317 168.322C109.948 167.207 109.231 166.775 108.299 167.011C107.491 167.217 107.081 167.88 107.27 168.641C107.429 169.283 108.028 169.587 109.216 169.664C111.694 169.813 112.334 170.717 112.6 171.781C113.015 173.441 111.889 174.896 110.353 175.287C108.801 175.677 107.26 174.911 106.794 173.267L108.55 172.825Z" fill="#697687"/>
<path d="M96.4879 167.654L100.947 172.146L98.1211 177.204L95.9964 177.471L98.8993 172.506L94.2402 167.931L96.4879 167.649V167.654ZM102.156 166.939L103.763 179.774L101.966 180L100.359 167.166L102.156 166.939Z" fill="#697687"/>
<path d="M90.9019 164.76L89.4684 168.178L93.252 177.697L91.3013 177.682L88.5161 170.147L85.5568 177.641L83.6061 177.625L89.0229 164.745L90.9019 164.755V164.76Z" fill="#697687"/>
<path d="M67.1148 166.235C68.0824 165.428 69.3675 165.223 70.7038 165.552C73.3918 166.21 75.1428 169.103 74.5233 171.653C73.8321 174.49 71.1032 176.14 68.277 175.446C67.0585 175.148 65.8962 174.325 65.3587 173.308L65.0924 174.397L63.3363 173.966L65.3228 165.798C66.0652 162.74 68.3999 161.316 71.5793 162.098C73.7246 162.622 75.1428 164.174 75.4909 166.204L73.53 165.721C73.0999 164.626 72.3217 163.984 71.1697 163.701C69.0194 163.177 67.6063 164.066 67.0789 166.225L67.1148 166.235ZM66.2393 169.689C65.7017 171.894 67.0994 173.441 68.7224 173.842C70.4632 174.269 72.3012 173.118 72.7467 171.288C73.187 169.489 72.0657 167.597 70.325 167.166C68.277 166.667 66.6079 168.163 66.2342 169.689H66.2393Z" fill="#697687"/>
<path d="M58.6364 161.578C61.14 162.637 62.4712 165.721 61.4165 168.235C60.2748 170.954 57.3001 172.069 54.5712 170.918C52.1188 169.879 50.6187 166.97 51.8372 164.148C52.8714 161.779 55.7949 160.381 58.6364 161.578ZM55.2931 169.417C56.9622 170.121 58.9999 169.314 59.7321 167.577C60.4386 165.886 59.6655 163.814 57.9811 163.1C56.2301 162.36 54.2231 163.141 53.4653 164.945C52.7383 166.682 53.5421 168.677 55.2931 169.412V169.417Z" fill="#697687"/>
<path d="M45.5137 154.85L42.7489 159.343C41.6789 161.08 41.8581 162.324 43.22 163.167C44.5665 164.004 45.995 163.511 46.9473 161.964L49.7171 157.456L51.2582 158.412L46.1895 166.652L44.7508 165.762L45.2884 164.883L45.2577 164.863C44.1671 165.274 43.1278 165.063 42.1806 164.477C40.2095 163.254 39.5285 161.106 40.9263 158.834L43.9624 153.899L45.5034 154.855L45.5137 154.85Z" fill="#697687"/>
<path d="M35.31 146.801L34.414 147.845L34.4396 147.865C35.6889 147.562 37.0149 147.948 38.0799 148.868C40.2046 150.703 40.4914 153.766 38.6431 155.925C36.7231 158.161 33.6768 158.505 31.4957 156.624C30.5076 155.771 29.8778 154.604 29.9188 153.344L29.8932 153.324L27.0107 156.685L25.6385 155.498L34.0454 145.696L35.31 146.791V146.801ZM32.4736 155.277C33.8713 156.485 35.9756 156.254 37.2146 154.809C38.3973 153.432 38.3103 151.258 36.9381 150.07C35.5507 148.873 33.4157 149.006 32.2227 150.399C30.9376 151.895 30.9325 153.941 32.4736 155.277Z" fill="#697687"/>
<path d="M28.9818 139.657C30.7226 141.749 30.5024 145.1 28.4186 146.853C26.1608 148.749 23.0069 148.369 21.1074 146.087C19.3974 144.036 19.3923 140.762 21.7628 138.814C23.7595 137.185 27.0004 137.287 28.9767 139.657H28.9818ZM22.4335 145.09C23.5957 146.483 25.7768 146.704 27.2155 145.491C28.6183 144.314 28.8743 142.119 27.7019 140.711C26.4833 139.251 24.3432 139.02 22.8482 140.274C21.4044 141.487 21.215 143.625 22.4335 145.09Z" fill="#697687"/>
<path d="M23.888 133.278L13.1259 140.381L12.1327 138.865L22.8947 131.762L23.888 133.278Z" fill="#697687"/>
<path d="M17.4467 121.832L16.1104 122.505L16.1258 122.536C17.4569 122.628 18.5321 123.456 19.1516 124.684C20.4162 127.213 19.551 130.23 17.0627 131.49C14.3082 132.877 11.3899 131.87 10.115 129.326C9.48016 128.061 9.41872 126.761 10.0587 125.599L10.0433 125.568L8.82993 126.18L8.01587 124.556L16.6326 120.208L17.4467 121.832ZM13.1358 123.97C11.4564 124.818 10.668 126.74 11.564 128.539C12.378 130.164 14.426 130.791 16.1207 129.937C17.7385 129.12 18.4912 127.08 17.6771 125.455C16.8323 123.769 14.769 123.148 13.1358 123.975V123.97Z" fill="#697687"/>
<path d="M6.72553 111.285C5.3022 111.624 3.82255 110.735 3.48464 109.29C3.14673 107.861 4.09903 106.433 5.507 106.098C6.96105 105.754 8.4151 106.664 8.74277 108.062C9.08068 109.506 8.15398 110.951 6.73065 111.29L6.72553 111.285Z" fill="#697687"/>
</svg>
